<?xml version="1.0" standalone="no"?>
<!DOCTYPE svg PUBLIC "-//W3C//DTD SVG 20010904//EN"
 "http://www.w3.org/TR/2001/REC-SVG-20010904/DTD/svg10.dtd">
<svg version="1.0" xmlns="http://www.w3.org/2000/svg"
 width="1280.000000pt" height="1280.000000pt" viewBox="0 0 1280.000000 1280.000000"
 preserveAspectRatio="xMidYMid meet">
<g transform="translate(0.000000,1280.000000) scale(0.100000,-0.100000)"
fill="#000000" stroke="none">
<path d="M4590 12459 c-156 -40 -279 -116 -415 -253 -226 -227 -394 -586 -479
-1022 -81 -416 -81 -909 0 -1374 153 -888 593 -1636 1108 -1885 224 -108 434
-122 651 -44 118 43 223 114 335 228 266 268 441 693 517 1251 25 190 25 692
0 900 -98 788 -379 1454 -786 1861 -58 58 -137 129 -176 158 -96 72 -271 156
-375 181 -114 27 -276 26 -380 -1z"/>
<path d="M8541 12265 c-247 -54 -472 -193 -707 -437 -433 -450 -744 -1167
-850 -1960 -21 -161 -30 -574 -14 -739 46 -508 204 -918 448 -1166 312 -318
728 -346 1147 -75 228 147 478 421 657 718 458 763 643 1784 472 2594 -124
587 -432 983 -826 1064 -93 19 -240 19 -327 1z"/>
<path d="M2069 8994 c-225 -40 -430 -174 -582 -379 -69 -93 -163 -282 -207
-415 -123 -379 -133 -883 -25 -1365 97 -431 286 -849 537 -1183 83 -111 269
-306 367 -386 158 -128 346 -231 516 -282 130 -38 341 -45 468 -15 271 64 490
250 641 541 443 856 138 2295 -650 3061 -60 58 -143 130 -184 161 -293 219
-605 312 -881 262z"/>
<path d="M10609 8200 c-155 -26 -355 -110 -505 -210 -303 -204 -574 -522 -778
-913 -470 -898 -482 -1991 -28 -2558 293 -365 738 -447 1197 -219 66 33 163
90 214 127 120 86 319 277 424 408 649 806 859 2062 469 2819 -150 291 -384
483 -663 541 -74 16 -251 18 -330 5z"/>
<path d="M6265 6419 c-470 -68 -1054 -450 -1615 -1054 -982 -1059 -1745 -2539
-1787 -3466 -7 -167 8 -302 48 -423 40 -120 83 -188 183 -288 201 -201 445
-327 757 -390 103 -21 141 -23 394 -23 308 0 377 7 693 70 233 47 373 83 867
224 628 178 746 202 922 182 186 -21 343 -75 798 -276 246 -109 429 -173 585
-206 140 -29 366 -32 490 -5 293 63 555 226 837 520 161 167 209 245 255 411
19 71 22 106 22 305 1 254 -9 336 -74 605 -199 826 -742 1849 -1405 2645 -166
199 -523 557 -690 690 -327 261 -650 426 -929 475 -95 16 -253 18 -351 4z"/>
</g>
</svg>
